<svg width="20" height="18" viewBox="0 0 20 18" fill="none" xmlns="http://www.w3.org/2000/svg">
<g id="Group">
<g id="Group_2">
<g id="Group_3">
<path id="Vector" d="M19.2432 0H0.447517C0.20036 0 0 0.194344 0 0.43408V1.73632C0 1.97606 0.20036 2.1704 0.447517 2.1704H19.2432C19.4904 2.1704 19.6907 1.97606 19.6907 1.73632V0.43408C19.6907 0.194344 19.4904 0 19.2432 0Z" transform="translate(0.153854 15.8296)" fill="#D25572"/>
<path id="Vector_2" fill-rule="evenodd" clip-rule="evenodd" d="M0 0.65112C0 0.290834 0.299836 0 0.671275 0H15.4393C15.8108 0 16.1106 0.290834 16.1106 0.65112V1.30224H0V0.65112Z" transform="translate(1.94392 14.5274)" fill="#88293F"/>
<path id="Vector_3" fill-rule="evenodd" clip-rule="evenodd" d="M12.5305 0.43408C12.4118 0.43408 12.2979 0.479813 12.214 0.561219C12.1301 0.642625 12.0829 0.753035 12.0829 0.86816V5.64304C12.0829 5.75817 12.1301 5.86858 12.214 5.94998C12.2979 6.03139 12.4118 6.07712 12.5305 6.07712V6.5112H9.84536V6.07712C9.96405 6.07712 10.0779 6.03139 10.1618 5.94998C10.2457 5.86858 10.2929 5.75817 10.2929 5.64304V0.86816C10.2929 0.753035 10.2457 0.642625 10.1618 0.561219C10.0779 0.479813 9.96405 0.43408 9.84536 0.43408V0H12.5305V0.43408ZM7.60778 0.43408C7.48909 0.43408 7.37526 0.479813 7.29134 0.561219C7.20741 0.642625 7.16026 0.753035 7.16026 0.86816V5.64304C7.16026 5.75817 7.20741 5.86858 7.29134 5.94998C7.37526 6.03139 7.48909 6.07712 7.60778 6.07712V6.5112H4.92268V6.07712C5.04137 6.07712 5.1552 6.03139 5.23912 5.94998C5.32305 5.86858 5.3702 5.75817 5.3702 5.64304V0.86816C5.3702 0.753035 5.32305 0.642625 5.23912 0.561219C5.1552 0.479813 5.04137 0.43408 4.92268 0.43408V0H7.60778V0.43408ZM2.6851 0.43408C2.56641 0.43408 2.45258 0.479813 2.36866 0.561219C2.28473 0.642625 2.23758 0.753035 2.23758 0.86816V5.64304C2.23758 5.75817 2.28473 5.86858 2.36866 5.94998C2.45258 6.03139 2.56641 6.07712 2.6851 6.07712V6.5112H0V6.07712C0.118689 6.07712 0.232516 6.03139 0.316442 5.94998C0.400368 5.86858 0.447517 5.75817 0.447517 5.64304V0.86816C0.447517 0.753035 0.400368 0.642625 0.316442 0.561219C0.232516 0.479813 0.118689 0.43408 0 0.43408V0H2.6851V0.43408Z" transform="translate(3.73399 7.148)" fill="#D25572"/>
<path id="Vector_4" fill-rule="evenodd" clip-rule="evenodd" d="M0 0H16.1106V0.65112C16.1106 1.01141 15.8108 1.30224 15.4393 1.30224H0.671275C0.493242 1.30224 0.3225 1.23364 0.196612 1.11153C0.0707233 0.989422 0 0.823808 0 0.65112V0Z" transform="translate(1.94392 4.9776)" fill="#88293F"/>
<path id="Vector_5" fill-rule="evenodd" clip-rule="evenodd" d="M9.20265 0.159312C9.45424 0.0542095 9.72529 1.32594e-08 9.99923 1.32594e-08C10.2732 1.32594e-08 10.5442 0.0542095 10.7958 0.159312L19.5403 4.39593C20.2026 4.71715 20.1444 4.9776 19.3971 4.9776H0.601378C-0.141499 4.9776 -0.204151 4.71715 0.458173 4.39593L9.20265 0.154971V0.159312Z" fill="#D25572"/>
</g>
</g>
</g>
</svg>
