<svg width="19" height="17" viewBox="0 0 19 17" fill="none" xmlns="http://www.w3.org/2000/svg">
<g id="Group">
<path id="Vector" d="M17.7045 0H1.29545C0.561364 0 0 0.55914 0 1.29032V13.3333C0 14.0645 0.561364 14.6237 1.29545 14.6237H7.08182L7.81591 13.3333H3.02273C3.02273 12.3871 2.24545 11.6129 1.29545 11.6129V3.01075C2.24545 3.01075 3.02273 2.23656 3.02273 1.29032H15.9773C15.9773 2.23656 16.7545 3.01075 17.7045 3.01075V11.6129C16.7545 11.6129 15.9773 12.3871 15.9773 13.3333H15.4591L16.1932 14.6237H17.7045C18.4386 14.6237 19 14.0645 19 13.3333V1.29032C19 0.55914 18.4386 0 17.7045 0ZM14.25 3.87097H4.75C4.275 3.87097 3.88636 4.25806 3.88636 4.73118C3.88636 5.2043 4.275 5.5914 4.75 5.5914H14.25C14.725 5.5914 15.1136 5.2043 15.1136 4.73118C15.1136 4.25806 14.725 3.87097 14.25 3.87097ZM11.6591 9.89247C10.925 9.89247 10.3636 10.4516 10.3636 11.1828C10.3636 11.914 10.925 12.4731 11.6591 12.4731C12.3932 12.4731 12.9545 11.914 12.9545 11.1828C12.9545 10.4516 12.3932 9.89247 11.6591 9.89247Z" fill="#D25572"/>
<path id="Vector_2" d="M8.06658 7.31183L6.33931 4.98925C6.81431 4.47312 7.0734 3.78495 7.0734 3.01075C7.0734 1.33333 5.73476 -1.64073e-07 4.05067 -1.64073e-07C2.36658 -1.64073e-07 1.02795 1.33333 1.02795 3.01075C1.02795 3.78495 1.33022 4.47312 1.76204 4.98925L0.0347642 7.31183C-0.0515995 7.39785 0.0347639 7.56989 0.164309 7.52688L1.71885 7.09678C1.80522 7.09678 1.89158 7.13978 1.89158 7.1828L2.3234 8.77419C2.36658 8.90323 2.53931 8.90323 2.58249 8.77419L3.7484 6.02151H4.26658L5.43249 8.77419C5.47567 8.90323 5.6484 8.90323 5.69158 8.77419L6.1234 7.1828C6.1234 7.09677 6.20976 7.05376 6.29613 7.09678L7.85067 7.52688C8.06658 7.56989 8.15295 7.44086 8.06658 7.31183V7.31183ZM1.93476 3.05376C1.93476 1.84946 2.88476 0.903226 4.09385 0.903226C5.30295 0.903226 6.25295 1.84946 6.25295 3.05376C6.25295 4.25806 5.30295 5.2043 4.09385 5.2043C2.88476 5.2043 1.93476 4.25806 1.93476 3.05376Z" transform="translate(7.56525 8.12903)" fill="#88293F"/>
</g>
</svg>
