<svg width="15" height="17" viewBox="0 0 15 17" fill="none" xmlns="http://www.w3.org/2000/svg">
<g id="Group">
<path id="Vector" d="M1 11C0.734784 11 0.48043 10.8946 0.292893 10.7071C0.105357 10.5196 0 10.2652 0 10V4C0 2.93913 0.421427 1.92172 1.17157 1.17157C1.92172 0.421427 2.93913 0 4 0C5.06087 0 6.07828 0.421427 6.82843 1.17157C7.57857 1.92172 8 2.93913 8 4V11H1ZM4 2C3.60218 2 3.22064 2.15804 2.93934 2.43934C2.65804 2.72064 2.5 3.10218 2.5 3.5C2.5 3.89782 2.65804 4.27936 2.93934 4.56066C3.22064 4.84196 3.60218 5 4 5C4.39782 5 4.77936 4.84196 5.06066 4.56066C5.34196 4.27936 5.5 3.89782 5.5 3.5C5.5 3.10218 5.34196 2.72064 5.06066 2.43934C4.77936 2.15804 4.39782 2 4 2Z" transform="translate(0 5.0025)" fill="#D25572"/>
<path id="Vector_2" d="M7 16.0025H1C0.734784 16.0025 0.48043 15.8971 0.292893 15.7096C0.105357 15.5221 0 15.2677 0 15.0025V3.00251C0 2.73729 0.105357 2.48294 0.292893 2.2954C0.48043 2.10786 0.734784 2.00251 1 2.00251H1.55C1.66476 1.43736 1.97136 0.929269 2.41787 0.564317C2.86438 0.199366 3.42332 0 4 0C4.57668 0 5.13562 0.199366 5.58213 0.564317C6.02864 0.929269 6.33524 1.43736 6.45 2.00251H7C7.26522 2.00251 7.51957 2.10786 7.70711 2.2954C7.89464 2.48294 8 2.73729 8 3.00251V15.0025C8 15.2677 7.89464 15.5221 7.70711 15.7096C7.51957 15.8971 7.26522 16.0025 7 16.0025Z" transform="translate(7)" fill="#88293F"/>
<path id="Vector_3" d="M0 0H2V4H0V0Z" transform="translate(10 12.0025)" fill="#D25572"/>
</g>
</svg>
